<svg xmlns="http://www.w3.org/2000/svg" width="28.117" height="26.683" viewBox="-0.017 -0.017 28.117 26.683"><path d="M23.857 0H4.21A4.21 4.21 0 0 0 0 4.21v21.05a1.403 1.403 0 0 0 2.119 1.207L8.42 22.65c.233-.139.501-.207.772-.197h14.665a4.21 4.21 0 0 0 4.21-4.21V4.21A4.21 4.21 0 0 0 23.857 0ZM8.42 12.63a1.403 1.403 0 1 1 0-2.807 1.403 1.403 0 0 1 0 2.807Zm5.613 0a1.403 1.403 0 1 1 0-2.807 1.403 1.403 0 0 1 0 2.807Zm5.614 0a1.403 1.403 0 1 1 0-2.807 1.403 1.403 0 0 1 0 2.807Z" fill="#9f2241" fill-rule="evenodd" data-name="message-square"/></svg>