<svg xmlns="http://www.w3.org/2000/svg" width="21.053" height="20" viewBox="0 0 21.053 20"><defs><style>.a{fill:#621031;}</style></defs><g transform="translate(-2 -3)"><path class="a" d="M19.895,3H5.158A3.158,3.158,0,0,0,2,6.158V21.947a1.052,1.052,0,0,0,1.589.905l4.726-2.863a1.053,1.053,0,0,1,.579-.147h11a3.158,3.158,0,0,0,3.158-3.158V6.158A3.158,3.158,0,0,0,19.895,3ZM8.316,12.474a1.053,1.053,0,1,1,1.053-1.053A1.053,1.053,0,0,1,8.316,12.474Zm4.211,0a1.053,1.053,0,1,1,1.053-1.053A1.053,1.053,0,0,1,12.526,12.474Zm4.211,0a1.053,1.053,0,1,1,1.053-1.053A1.053,1.053,0,0,1,16.737,12.474Z" transform="translate(0 0)"/></g></svg>