<svg xmlns="http://www.w3.org/2000/svg" width="26.7" height="26.7" viewBox="1714.2 27.15 26.7 26.7"><path d="M1727.55 37.194a3.306 3.306 0 1 0 0 6.612 3.306 3.306 0 0 0 0-6.612Zm13.239-3.267a8.706 8.706 0 0 0-.56-3.012 5.333 5.333 0 0 0-3.093-3.093 8.706 8.706 0 0 0-3.013-.56c-1.72-.094-2.226-.094-6.573-.094-4.346 0-4.852 0-6.572.094a8.706 8.706 0 0 0-3.013.56 5.333 5.333 0 0 0-3.093 3.093 8.706 8.706 0 0 0-.56 3.012c-.093 1.72-.093 2.227-.093 6.573s0 4.853.093 6.573a9.145 9.145 0 0 0 .56 3.026c.266.701.68 1.338 1.213 1.866.531.537 1.173.95 1.88 1.213a8.706 8.706 0 0 0 3.013.56c1.72.094 2.226.094 6.572.094 4.347 0 4.853 0 6.573-.094a8.706 8.706 0 0 0 3.013-.56 5.186 5.186 0 0 0 1.88-1.213 5.253 5.253 0 0 0 1.213-1.866 8.799 8.799 0 0 0 .56-3.026c.093-1.72.093-2.227.093-6.573s0-4.853-.093-6.573Zm-3.386 10.666a7.639 7.639 0 0 1-.52 2.4 5.146 5.146 0 0 1-2.84 2.84 7.639 7.639 0 0 1-2.413.466h-8.16a7.639 7.639 0 0 1-2.412-.467 4.68 4.68 0 0 1-1.747-1.146 4.68 4.68 0 0 1-1.093-1.693 7.319 7.319 0 0 1-.453-2.414V36.42a7.32 7.32 0 0 1 .453-2.413 4.68 4.68 0 0 1 1.147-1.746 4.786 4.786 0 0 1 1.693-1.093 7.639 7.639 0 0 1 2.413-.467H1731.63a7.64 7.64 0 0 1 2.413.467 4.68 4.68 0 0 1 1.746 1.146 4.68 4.68 0 0 1 1.094 1.693c.284.774.442 1.59.466 2.414V40.5c0 2.746.094 3.026.054 4.08Zm-2.134-9.919a3.173 3.173 0 0 0-1.88-1.88 5.333 5.333 0 0 0-1.84-.293H1723.55a5.333 5.333 0 0 0-1.839.347 3.173 3.173 0 0 0-1.88 1.813 5.693 5.693 0 0 0-.28 1.84V44.5c.014.628.13 1.25.347 1.84a3.173 3.173 0 0 0 1.88 1.879c.569.21 1.167.326 1.773.347H1731.55a5.333 5.333 0 0 0 1.84-.347 3.173 3.173 0 0 0 1.88-1.88c.223-.588.34-1.21.346-1.84V36.5a5.04 5.04 0 0 0-.347-1.84Zm-7.719 10.919a5.08 5.08 0 0 1-5.079-5.093 5.093 5.093 0 1 1 5.08 5.093Zm5.333-9.186a1.2 1.2 0 0 1 0-2.386 1.2 1.2 0 0 1 0 2.386Z" fill="#f1f1f1" fill-rule="evenodd" data-name="instagram-6"/></svg>