<svg xmlns="http://www.w3.org/2000/svg" width="13.45" height="13.45" viewBox="114.167 17.45 13.45 13.45"><path d="M120.896 22.514a1.666 1.666 0 1 0 0 3.33 1.666 1.666 0 0 0 0-3.33Zm6.67-1.646a4.386 4.386 0 0 0-.282-1.518 2.687 2.687 0 0 0-1.559-1.558c-.485-.183-.999-.279-1.518-.282-.866-.047-1.121-.047-3.31-.047-2.19 0-2.446 0-3.312.047a4.386 4.386 0 0 0-1.518.282 2.687 2.687 0 0 0-1.558 1.558c-.183.485-.279 1-.282 1.518-.047.866-.047 1.122-.047 3.311 0 2.19 0 2.445.047 3.311.007.52.102 1.036.282 1.525.134.354.342.674.611.94.267.27.59.48.947.612.485.183 1 .278 1.518.282.866.047 1.122.047 3.311.047 2.19 0 2.445 0 3.311-.047a4.386 4.386 0 0 0 1.518-.282c.357-.133.68-.341.947-.612.269-.266.477-.586.612-.94a4.433 4.433 0 0 0 .282-1.525c.047-.866.047-1.121.047-3.31 0-2.19 0-2.446-.047-3.312Zm-1.706 5.373c-.022.415-.11.823-.262 1.21a2.593 2.593 0 0 1-1.43 1.43c-.39.143-.801.223-1.217.235h-4.11a3.848 3.848 0 0 1-1.216-.235 2.357 2.357 0 0 1-.88-.578 2.357 2.357 0 0 1-.55-.853c-.144-.39-.222-.8-.229-1.216v-4.11c.007-.415.085-.826.229-1.216.123-.333.32-.634.577-.88.242-.242.533-.43.853-.55.39-.144.8-.223 1.216-.235h4.11c.416.012.826.091 1.216.235.333.123.634.32.88.577.243.241.431.532.55.853.144.39.224.8.236 1.216v2.055c0 1.384.047 1.525.027 2.055Zm-1.075-4.997a1.599 1.599 0 0 0-.947-.947 2.687 2.687 0 0 0-.927-.148h-4.03c-.317.003-.63.063-.927.175a1.599 1.599 0 0 0-.947.913c-.097.3-.145.613-.14.927v4.03c.006.317.065.63.174.927.162.44.508.785.947.947.287.105.588.164.893.175h4.03c.317-.003.63-.063.927-.175.439-.162.785-.508.947-.947.112-.296.172-.61.175-.927v-4.03c0-.317-.06-.631-.175-.927Zm-3.889 5.5a2.559 2.559 0 0 1-2.559-2.565 2.566 2.566 0 1 1 2.56 2.566Zm2.687-4.627a.604.604 0 0 1 0-1.202.604.604 0 0 1 0 1.202Z" fill="#1a1a1a" fill-rule="evenodd" data-name="instagram-6"/></svg>