<svg xmlns="http://www.w3.org/2000/svg" width="14.167" height="13.45" viewBox="1.983 3 14.167 13.45"><path d="M14.02 3H4.12C2.95 3 2 3.95 2 5.121v10.605a.707.707 0 0 0 1.068.608l3.174-1.923a.707.707 0 0 1 .389-.099h7.388c1.171 0 2.121-.95 2.121-2.12V5.12C16.14 3.95 15.19 3 14.02 3ZM6.241 9.363a.707.707 0 1 1 0-1.414.707.707 0 0 1 0 1.414Zm2.828 0a.707.707 0 1 1 0-1.414.707.707 0 0 1 0 1.414Zm2.828 0a.707.707 0 1 1 0-1.414.707.707 0 0 1 0 1.414Z" fill="#1a1a1a" fill-rule="evenodd" data-name="message-square"/></svg>