<svg xmlns="http://www.w3.org/2000/svg" width="622" height="1534.671" viewBox="0 0 622 1534.671"><defs><style>.a{opacity:0.3;}.b{fill:#d6c19c;}</style></defs><g class="a" transform="translate(-1298)"><path class="b" d="M124.463,354.76c111.124,41.95,204.55,112.357,310.158,170.576C514.5,570.017,597.1,645.842,693.228,614.7c25.723-9.478,43.326-36.552,48.74-63.636C773.11,389.94,843.517,188.2,1033.806,195.861a521.871,521.871,0,0,0,117.321-23.3,629.231,629.231,0,0,0,110.76-47.995C1349.693,77,1438.118,20.185,1534.67,0h-113.7c-104.139,42.413-202.7,101.408-310.986,125.331a444.773,444.773,0,0,1-76.321,10.306c-88.6-2.948-183.381,11.945-248.373,79.642C714.89,291.1,716.243,396.71,674.272,484.718c-50.1,104.254-171.954,27.079-246.422-10.832-90.714-46.035-173.307-101.547-266.887-140.665q-49.1-21.116-98.556-41.194Q31.287,279.463,0,267.445v38.218q4.31,1.585,8.618,3.175,58.265,21.7,115.846,45.921" transform="translate(1919.999 0.001) rotate(90)"/><path class="b" d="M222.343,337.448C326.3,385.883,417.019,458.992,536.168,483.367c44.681,9.475,88.007-13.539,98.839-58.224C672.918,273.5,760.925,97.485,935.37,101.942c32.184-1.493,65.2-1.749,98.3-2.678C1147,93.686,1252.219,48.885,1354.715,0h-118.84c-65.822,21.039-132.59,37.072-202.2,39.152-33.1,1.468-66.269,1.471-99.117,1.93-42.135.448-84.525,3.381-125.034,13.224C729.783,71.76,663.44,127.272,628.238,203.095c-29.788,63.636-35.2,153-104.256,181.434-93.424,40.615-185.492-36.557-270.528-72.884-36.693-17.489-73.167-34.279-109.72-50.7C96.063,239.791,48.182,219.011,0,199.179V244.6q58.577,22.359,116.527,46.55c35.339,14.839,70.533,30.149,105.816,46.3" transform="translate(1920 0) rotate(90)"/><path class="b" d="M205.795,257.278C311.411,312.765,502.316,407.542,551.061,238.3,578.137,146.231,635,64.99,724.338,31.593,756.848,17.827,791.72,8.744,827.27,3.679,838.973,2.024,850.756.812,862.551,0H617a354.719,354.719,0,0,0-50.844,41.961c-47.592,44.693-65.2,106.975-101.75,162.486-51.45,78.531-158.417,44.681-230.18,14.914C198.183,204.29,162.2,188.9,126.209,173.488,84.183,155.495,42.15,137.457,0,119.825v50.639Q51.193,191,102.048,212.59q51.986,22.009,103.747,44.689" transform="translate(1919.999 0.001) rotate(90)"/><path class="b" d="M222.832,178.342c26.229,9.539,53.416,17.7,79.58,21.614,37.433,4.491,80.755,5.845,106.484-28C452.222,115.089,479.3,51.453,533.385,6.675Q537.04,3.291,540.763,0H425.5c-24.9,39.105-48.318,78.348-91.077,98.839C273.5,127.271,205.8,105.608,144.87,83.944,96.335,66.685,48.118,47.891,0,28.756V88.706c49.65,19.787,99.219,40.036,148.936,60.232,22.34,9.136,47.64,19.968,73.9,29.4" transform="translate(1919.999 0.001) rotate(90)"/><path class="b" d="M267.719,44.681C293.488,35.267,313.445,19.125,330.994,0H0Q44.912,15.823,90.351,31.142C147.216,48.746,209.5,67.7,267.719,44.681" transform="translate(1920 23.384) rotate(90)"/></g></svg>