<svg xmlns="http://www.w3.org/2000/svg" width="43.099" height="47.652" viewBox="0 0 43.099 47.652"><defs><style>.a{fill:#f7943e;}</style></defs><path class="a" d="M34.1,64.277a14.432,14.432,0,0,0,10.124-4.148l8.859-8.859a1.69,1.69,0,0,0-2.39-2.39l-8.859,8.789A10.84,10.84,0,0,1,34.1,60.832a10.962,10.962,0,0,1-7.734-3.164A10.558,10.558,0,0,1,23.2,49.934,10.962,10.962,0,0,1,26.368,42.2L46.406,22.162a7.593,7.593,0,0,1,5.484-2.25,7.711,7.711,0,0,1,5.484,2.25,7.593,7.593,0,0,1,2.25,5.484,7.711,7.711,0,0,1-2.25,5.484L37.266,53.238A4.574,4.574,0,0,1,30.8,46.77l8.929-8.929a1.69,1.69,0,1,0-2.39-2.39l-8.859,8.929A7.955,7.955,0,0,0,39.727,55.629L59.765,35.591a11.2,11.2,0,0,0,0-15.749,11.161,11.161,0,0,0-15.679,0L24.048,39.88A14.188,14.188,0,0,0,19.9,50a14.432,14.432,0,0,0,4.148,10.124A14.146,14.146,0,0,0,34.1,64.277Z" transform="translate(-19.9 -16.625)"/></svg>