<svg xmlns="http://www.w3.org/2000/svg" width="115.017" height="115.017" viewBox="516.983 925.983 115.017 115.017"><g data-name="CompositeLayer"><path d="M21 0h73a21 21 0 0 1 21 21v73a21 21 0 0 1-21 21H21A21 21 0 0 1 0 94V21A21 21 0 0 1 21 0z" fill-rule="evenodd" fill="url(&quot;#a&quot;)" transform="translate(517 926)" data-name="Rectángulo 270"/><path d="M590.617 1003.647v-40.294h-26.19a6.044 6.044 0 0 0-6.044 6.044v28.206a6.044 6.044 0 0 0 6.044 6.044h26.19Zm-24.176-32.235h16.118v4.03H566.44v-4.03Zm-4.029 26.19a2.015 2.015 0 0 1 .625-1.43c.36-.38.865-.593 1.39-.584h22.16v4.03h-22.16a2.015 2.015 0 0 1-2.015-2.015Z" fill="#fff" fill-rule="evenodd" data-name="Layer 2"/></g><defs><linearGradient x1="0" y1=".039" x2="1" y2="1.032" id="a"><stop stop-color="#ffda0d" offset="0"/><stop stop-color="#f7943e" offset=".261"/><stop stop-color="#e95a5c" offset=".542"/><stop stop-color="#d958a0" offset=".788"/><stop stop-color="#21409a" offset="1"/></linearGradient></defs></svg>