<svg xmlns="http://www.w3.org/2000/svg" width="34.667" height="34.683" viewBox="573.667 2796.617 34.667 34.683"><g data-name="Grupo 273"><path d="M575 2813.903a16 16 0 1 1 0 .094z" stroke-linejoin="round" stroke-linecap="round" stroke-width="1.88236" stroke="#fff" fill="transparent" data-name="Elipse 5"/><g data-name="arrow-3"><path d="m584 2809.7.7-.7 5.3 5.3-5.3 5.3-.7-.7 4.6-4.6-4.6-4.6Z" fill="#34485c" fill-rule="evenodd"/><path d="m584 2809.7.7-.7 5.3 5.3-5.3 5.3-.7-.7 4.6-4.6-4.6-4.6Z" stroke-linejoin="round" stroke-linecap="round" stroke-width="1.5" stroke="#fff" fill="transparent"/></g><g data-name="arrow-3"><path d="m593 2809.7.7-.7 5.3 5.3-5.3 5.3-.7-.7 4.6-4.6-4.6-4.6Z" fill="#34485c" fill-rule="evenodd"/><path d="m593 2809.7.7-.7 5.3 5.3-5.3 5.3-.7-.7 4.6-4.6-4.6-4.6Z" stroke-linejoin="round" stroke-linecap="round" stroke-width="1.5" stroke="#fff" fill="transparent"/></g></g></svg>