<svg xmlns="http://www.w3.org/2000/svg" width="264.932" height="1467.728" viewBox="0 0 264.932 1467.728"><defs><style>.a{opacity:0.3;}.b{fill:#d6c19c;}</style></defs><g class="a" transform="translate(0 2.259)"><path class="b" d="M1312.4,85.963C1256,1.369,1152.6-15.081,1062.135,11.939,948.167,46.016,875.321,136.482,774.281,197.582c-14.1,8.225-28.2,16.449-41.806,23.289a412.55,412.55,0,0,1-66.994,27.787c-45.844,14.178-94.183,18.8-145.74,8.512-31.936-5.117-63.179-12.086-94.364-20.123s-62.324-17.141-94.047-26.541C215.665,177.178,108.175,220.719,0,257.216v7.715H193.812c36.941-5.44,73.064-4.431,108.769,0H750.566c7.922-4.6,15.819-9.4,23.715-14.478,123.363-81.071,227.935-203.263,377.152-195.038,116.74,6.936,175.49,121.89,243.365,209.516h72.931C1405.1,222.765,1356.52,152.144,1312.4,85.963" transform="translate(264.932 -2.258) rotate(90)"/><path class="b" d="M0,156.576H92.57C194.046,86.471,301.554,35.1,408.081,125.649A410.207,410.207,0,0,1,440.9,156.576h78.038C496.784,126.086,475.449,94.9,448.026,66.9,303.562-83.894,136.381,53.022,0,156.576" transform="translate(156.576 819.812) rotate(90)"/><path class="b" d="M0,27.013H191.735C129.9-14.651,62.173-2.879,0,27.013" transform="translate(27.013 996.191) rotate(90)"/></g></svg>