<svg xmlns="http://www.w3.org/2000/svg" width="622" height="1534.671" viewBox="0 0 622 1534.671"><defs><style>.a{opacity:0.3;}.b{fill:#d6c19c;}</style></defs><g class="a"><path class="b" d="M124.463,267.239c111.124-41.95,204.549-112.357,310.158-170.576C514.5,51.982,597.1-23.843,693.228,7.3c25.723,9.478,43.326,36.552,48.74,63.636,31.142,161.121,101.549,362.861,291.838,355.2a521.868,521.868,0,0,1,117.321,23.3,629.228,629.228,0,0,1,110.76,47.995C1349.693,545,1438.118,601.813,1534.669,622h-113.7c-104.139-42.413-202.7-101.408-310.986-125.331a444.776,444.776,0,0,0-76.321-10.306c-88.6,2.948-183.381-11.945-248.373-79.642-70.4-75.822-69.051-181.43-111.022-269.439C624.173,33.027,502.318,110.2,427.85,148.113,337.136,194.147,254.543,249.66,160.963,288.778q-49.1,21.116-98.556,41.194Q31.287,342.536,0,354.553V316.335q4.31-1.585,8.618-3.175,58.265-21.7,115.845-45.921" transform="translate(0 1534.669) rotate(-90)"/><path class="b" d="M222.343,148.026C326.3,99.592,417.019,26.483,536.168,2.107c44.681-9.475,88.007,13.539,98.839,58.224,37.911,151.64,125.918,327.658,300.363,323.2,32.184,1.493,65.2,1.749,98.3,2.678,113.327,5.578,218.544,50.379,321.039,99.264h-118.84c-65.822-21.039-132.59-37.072-202.2-39.152-33.1-1.468-66.269-1.471-99.117-1.93-42.135-.448-84.525-3.382-125.034-13.224C729.783,413.714,663.44,358.2,628.238,282.38c-29.788-63.636-35.2-153-104.256-181.434C430.558,60.331,338.49,137.5,253.454,173.83c-36.693,17.489-73.167,34.279-109.72,50.7C96.063,245.684,48.182,266.463,0,286.3V240.874q58.577-22.359,116.527-46.549c35.339-14.839,70.533-30.149,105.816-46.3" transform="translate(136.526 1534.671) rotate(-90)"/><path class="b" d="M205.795,77.024C311.411,21.537,502.316-73.239,551.061,96c27.076,92.066,83.943,173.307,173.277,206.7,32.51,13.766,67.382,22.849,102.932,27.914,11.7,1.655,23.487,2.867,35.281,3.679H617a354.719,354.719,0,0,1-50.844-41.961c-47.592-44.693-65.2-106.975-101.75-162.486-51.45-78.531-158.417-44.681-230.18-14.914-36.045,15.07-72.032,30.457-108.019,45.873C84.183,178.808,42.15,196.845,0,214.477V163.838Q51.193,143.3,102.048,121.712,154.034,99.7,205.795,77.024" transform="translate(287.697 1534.669) rotate(-90)"/><path class="b" d="M222.832,23.948c26.229-9.539,53.416-17.7,79.58-21.614,37.433-4.491,80.755-5.845,106.484,28C452.222,87.2,479.3,150.837,533.385,195.615q3.655,3.384,7.379,6.675H425.5c-24.9-39.105-48.318-78.348-91.077-98.839C273.5,75.019,205.8,96.682,144.87,118.346,96.335,135.6,48.118,154.4,0,173.533V113.584C49.65,93.8,99.219,73.548,148.936,53.352c22.34-9.136,47.64-19.968,73.9-29.4" transform="translate(419.709 1534.669) rotate(-90)"/><path class="b" d="M267.719,10.633c25.77,9.414,45.726,25.555,63.275,44.681H0Q44.912,39.49,90.351,24.172C147.216,6.567,209.5-12.385,267.719,10.633" transform="translate(566.687 1511.287) rotate(-90)"/></g></svg>