<svg xmlns="http://www.w3.org/2000/svg" width="610.013" height="1097.372" viewBox="0 0 610.013 1097.372"><defs><style>.a{opacity:0.3;}.b{fill:#d6c19c;}</style></defs><g class="a" transform="translate(1686.435 1345.043) rotate(-169)"><path class="b" d="M84.043,239.548c75.036,28.326,138.12,75.868,209.431,115.18,53.939,30.17,109.71,81.371,174.622,60.34,17.369-6.4,29.256-24.682,32.911-42.97,21.028-108.8,68.57-245.019,197.061-239.845a352.389,352.389,0,0,0,79.22-15.735,424.882,424.882,0,0,0,74.789-32.408C911.367,52,971.076,13.63,1036.271,0H959.5c-70.319,28.639-136.873,68.475-209.99,84.629a300.329,300.329,0,0,1-51.535,6.959c-59.83-1.991-123.826,8.066-167.712,53.777-47.54,51.2-46.626,122.509-74.966,181.936-33.829,70.4-116.111,18.285-166.394-7.314C227.648,288.9,171.878,251.418,108.688,225q-33.157-14.259-66.549-27.816Q21.126,188.7,0,180.59V206.4q2.91,1.07,5.819,2.144,39.343,14.651,78.224,31.008" transform="translate(1717.999 0.001) rotate(90)"/><path class="b" d="M150.135,227.859c70.2,32.7,131.454,82.071,211.908,98.531,30.17,6.4,59.426-9.142,66.74-39.315C454.382,184.68,513.808,65.826,631.6,68.836c21.732-1.008,44.029-1.181,66.379-1.808C774.5,63.261,845.549,33.009,914.758,0H834.513c-44.445,14.206-89.53,25.032-136.535,26.437-22.348.991-44.748.993-66.928,1.3-28.451.3-57.075,2.283-84.428,8.929-53.842,11.786-98.64,49.27-122.41,100.468-20.114,42.97-23.771,103.312-70.4,122.511-63.083,27.425-125.251-24.685-182.671-49.214-24.777-11.81-49.405-23.146-74.088-34.237C64.866,161.916,32.534,147.885,0,134.494v30.67q39.553,15.1,78.684,31.432c23.862,10.02,47.627,20.358,71.451,31.263" transform="translate(1718 0) rotate(90)"/><path class="b" d="M138.961,173.725c71.316,37.467,200.223,101.464,233.138-12.817,18.283-62.167,56.682-117.024,117-139.575a279.643,279.643,0,0,1,69.5-18.848C566.509,1.367,574.465.548,582.429,0h-165.8a239.522,239.522,0,0,0-34.332,28.334c-32.136,30.179-44.023,72.234-68.706,109.717-34.741,53.027-106.97,30.17-155.427,10.07-24.339-10.176-48.639-20.566-72.939-30.975C56.843,105,28.461,92.816,0,80.911V115.1q34.567,13.865,68.907,28.445,35.1,14.861,70.054,30.176" transform="translate(1717.999 0.001) rotate(90)"/><path class="b" d="M150.465,120.424c17.711,6.441,36.069,11.949,53.735,14.595,25.276,3.033,54.529,3.947,71.9-18.907,29.256-38.4,47.541-81.368,84.06-111.6Q362.631,2.222,365.145,0H287.318c-16.812,26.406-32.626,52.9-61.5,66.74-41.141,19.2-86.854,4.571-128-10.057C65.049,45.028,32.491,32.338,0,19.417V59.9c33.525,13.361,67,27.034,100.568,40.671,15.085,6.169,32.168,13.483,49.9,19.855" transform="translate(1717.999 0.001) rotate(90)"/><path class="b" d="M180.775,30.17C198.175,23.814,211.651,12.914,223.5,0H0Q30.326,10.685,61.008,21.028c38.4,11.887,80.453,24.685,119.766,9.142" transform="translate(1718 15.79) rotate(90)"/></g></svg>